<svg width="60" height="22" viewBox="0 0 60 22" fill="none" xmlns="http://www.w3.org/2000/svg">
<path d="M1.136 16.5V5.3H5.056C5.93067 5.3 6.656 5.44933 7.232 5.748C7.808 6.036 8.23467 6.436 8.512 6.948C8.8 7.44933 8.944 8.02 8.944 8.66C8.944 9.268 8.80533 9.828 8.528 10.34C8.26133 10.8413 7.84 11.2413 7.264 11.54C6.688 11.8387 5.952 11.988 5.056 11.988H2.832V16.5H1.136ZM2.832 10.596H4.976C5.776 10.596 6.34667 10.4253 6.688 10.084C7.04 9.732 7.216 9.25733 7.216 8.66C7.216 8.04133 7.04 7.56133 6.688 7.22C6.34667 6.868 5.776 6.692 4.976 6.692H2.832V10.596ZM10.6204 16.5V5.3H12.3164V10.1H17.7404V5.3H19.4364V16.5H17.7404V11.492H12.3164V16.5H10.6204Z" fill="white"/>
<path d="M24.5391 16.375C24.5391 16.0156 24.6536 15.7083 24.8828 15.4531C25.1172 15.1979 25.4531 15.0703 25.8906 15.0703C26.3177 15.0703 26.651 15.1979 26.8906 15.4531C27.1302 15.7031 27.25 16.0104 27.25 16.375C27.25 16.7396 27.1276 17.0443 26.8828 17.2891C26.6432 17.5339 26.3125 17.6562 25.8906 17.6562C25.4635 17.6562 25.1302 17.5339 24.8906 17.2891C24.6562 17.0391 24.5391 16.7344 24.5391 16.375ZM31.5703 13.2109C31.5703 12.5703 31.6458 11.987 31.7969 11.4609C31.9531 10.9297 32.1771 10.474 32.4688 10.0938C32.7552 9.71354 33.1042 9.41927 33.5156 9.21094C33.9323 8.9974 34.401 8.89062 34.9219 8.89062C35.3906 8.89062 35.7995 8.97396 36.1484 9.14062C36.5026 9.30208 36.8151 9.53385 37.0859 9.83594V5.5H38.9531V17.5H37.2578L37.1719 16.6172C36.901 16.9505 36.5781 17.2083 36.2031 17.3906C35.8281 17.5677 35.3958 17.6562 34.9062 17.6562C34.3906 17.6562 33.9271 17.5495 33.5156 17.3359C33.1042 17.1172 32.7552 16.8151 32.4688 16.4297C32.1823 16.0495 31.9609 15.599 31.8047 15.0781C31.6484 14.5521 31.5703 13.9844 31.5703 13.375V13.2109ZM33.4375 13.375C33.4375 13.75 33.474 14.1042 33.5469 14.4375C33.6198 14.7708 33.7344 15.0599 33.8906 15.3047C34.0469 15.5599 34.2474 15.7604 34.4922 15.9062C34.737 16.0469 35.0312 16.1172 35.375 16.1172C35.7969 16.1172 36.1458 16.026 36.4219 15.8438C36.6979 15.6562 36.9193 15.4036 37.0859 15.0859V11.4531C36.9193 11.1406 36.6979 10.8932 36.4219 10.7109C36.151 10.5234 35.8073 10.4297 35.3906 10.4297C35.0417 10.4297 34.7422 10.5026 34.4922 10.6484C34.2474 10.7943 34.0495 10.9948 33.8984 11.25C33.737 11.5052 33.6198 11.8021 33.5469 12.1406C33.474 12.474 33.4375 12.8307 33.4375 13.2109V13.375ZM45.375 17.6562C44.75 17.6562 44.1771 17.5521 43.6562 17.3438C43.1406 17.1354 42.6979 16.8464 42.3281 16.4766C41.9583 16.112 41.6719 15.6823 41.4688 15.1875C41.2708 14.6875 41.1719 14.1484 41.1719 13.5703V13.25C41.1719 12.5885 41.276 11.9896 41.4844 11.4531C41.6927 10.9167 41.9792 10.4583 42.3438 10.0781C42.7083 9.69792 43.1302 9.40625 43.6094 9.20312C44.0938 8.99479 44.6094 8.89062 45.1562 8.89062C45.7656 8.89062 46.3047 8.99479 46.7734 9.20312C47.2422 9.40625 47.6354 9.6901 47.9531 10.0547C48.2708 10.4245 48.5104 10.8646 48.6719 11.375C48.8333 11.8854 48.9141 12.4427 48.9141 13.0469V13.8516H43.0547V13.8906C43.112 14.2604 43.2005 14.5703 43.3203 14.8203C43.4401 15.0703 43.6042 15.2943 43.8125 15.4922C44.0208 15.7005 44.2656 15.862 44.5469 15.9766C44.8333 16.0911 45.1458 16.1484 45.4844 16.1484C45.9479 16.1484 46.3802 16.0599 46.7812 15.8828C47.1823 15.7005 47.513 15.4427 47.7734 15.1094L48.7734 16.0781C48.4922 16.4844 48.0599 16.849 47.4766 17.1719C46.8984 17.4948 46.1979 17.6562 45.375 17.6562ZM45.1484 10.4062C44.8828 10.4062 44.6354 10.4557 44.4062 10.5547C44.1823 10.6484 43.9818 10.7839 43.8047 10.9609C43.6276 11.1432 43.4792 11.362 43.3594 11.6172C43.2396 11.8724 43.151 12.1615 43.0938 12.4844H47.0703V12.3594C47.0703 12.1146 47.026 11.8724 46.9375 11.6328C46.849 11.388 46.724 11.1745 46.5625 10.9922C46.4062 10.8151 46.2083 10.6745 45.9688 10.5703C45.7344 10.4609 45.4609 10.4062 45.1484 10.4062ZM53.8047 17.5L50.4766 9.04688H52.4141L54.5078 15.1797L54.6328 15.7422L54.7578 15.1797L56.8281 9.04688H58.7656L55.4531 17.5H53.8047Z" fill="#2DD4BF"/>
</svg>
