<svg width="117" height="32" viewBox="0 0 117 32" fill="none" xmlns="http://www.w3.org/2000/svg">
<path d="M1.42 24V10H6.32C7.41333 10 8.32 10.1867 9.04 10.56C9.76 10.92 10.2933 11.42 10.64 12.06C11 12.6867 11.18 13.4 11.18 14.2C11.18 14.96 11.0067 15.66 10.66 16.3C10.3267 16.9267 9.8 17.4267 9.08 17.8C8.36 18.1733 7.44 18.36 6.32 18.36H3.54V24H1.42ZM3.54 16.62H6.22C7.22 16.62 7.93333 16.4067 8.36 15.98C8.8 15.54 9.02 14.9467 9.02 14.2C9.02 13.4267 8.8 12.8267 8.36 12.4C7.93333 11.96 7.22 11.74 6.22 11.74H3.54V16.62ZM17.2886 24.24C16.3153 24.24 15.4486 24.0267 14.6886 23.6C13.9419 23.16 13.3553 22.5533 12.9286 21.78C12.5019 21.0067 12.2886 20.1067 12.2886 19.08C12.2886 18.04 12.4953 17.1267 12.9086 16.34C13.3353 15.5533 13.9219 14.94 14.6686 14.5C15.4286 14.06 16.3086 13.84 17.3086 13.84C18.2819 13.84 19.1286 14.06 19.8486 14.5C20.5686 14.9267 21.1286 15.5 21.5286 16.22C21.9286 16.94 22.1286 17.7333 22.1286 18.6C22.1286 18.7333 22.1219 18.88 22.1086 19.04C22.1086 19.1867 22.1019 19.3533 22.0886 19.54H14.3686C14.4353 20.5 14.7486 21.2333 15.3086 21.74C15.8819 22.2333 16.5419 22.48 17.2886 22.48C17.8886 22.48 18.3886 22.3467 18.7886 22.08C19.2019 21.8 19.5086 21.4267 19.7086 20.96H21.8286C21.5619 21.8933 21.0286 22.6733 20.2286 23.3C19.4419 23.9267 18.4619 24.24 17.2886 24.24ZM17.2886 15.58C16.5819 15.58 15.9553 15.7933 15.4086 16.22C14.8619 16.6333 14.5286 17.26 14.4086 18.1H20.0086C19.9686 17.3267 19.6953 16.7133 19.1886 16.26C18.6819 15.8067 18.0486 15.58 17.2886 15.58ZM28.8483 24.24C27.8883 24.24 27.0416 24.0133 26.3083 23.56C25.5749 23.1067 25.0016 22.4867 24.5883 21.7C24.1749 20.9133 23.9683 20.02 23.9683 19.02C23.9683 18.02 24.1749 17.1333 24.5883 16.36C25.0016 15.5733 25.5749 14.96 26.3083 14.52C27.0549 14.0667 27.9083 13.84 28.8683 13.84C29.6549 13.84 30.3416 13.9933 30.9283 14.3C31.5283 14.6067 31.9949 15.04 32.3283 15.6V9.6H34.4483V24H32.5483L32.3283 22.46C32.0083 22.9267 31.5683 23.34 31.0083 23.7C30.4483 24.06 29.7283 24.24 28.8483 24.24ZM29.2283 22.4C30.1349 22.4 30.8749 22.0867 31.4483 21.46C32.0349 20.8333 32.3283 20.0267 32.3283 19.04C32.3283 18.04 32.0349 17.2333 31.4483 16.62C30.8749 15.9933 30.1349 15.68 29.2283 15.68C28.3216 15.68 27.5749 15.9933 26.9883 16.62C26.4016 17.2333 26.1083 18.04 26.1083 19.04C26.1083 19.6933 26.2416 20.2733 26.5083 20.78C26.7749 21.2867 27.1416 21.6867 27.6083 21.98C28.0883 22.26 28.6283 22.4 29.2283 22.4ZM37.1213 24V14.08H39.0213L39.2013 15.96C39.5479 15.3067 40.0279 14.7933 40.6413 14.42C41.2679 14.0333 42.0213 13.84 42.9013 13.84V16.06H42.3213C41.7346 16.06 41.2079 16.16 40.7413 16.36C40.2879 16.5467 39.9213 16.8733 39.6413 17.34C39.3746 17.7933 39.2413 18.4267 39.2413 19.24V24H37.1213ZM49.0855 24.24C48.1388 24.24 47.2855 24.0267 46.5255 23.6C45.7788 23.16 45.1855 22.5533 44.7455 21.78C44.3055 20.9933 44.0855 20.08 44.0855 19.04C44.0855 18 44.3055 17.0933 44.7455 16.32C45.1988 15.5333 45.8055 14.9267 46.5655 14.5C47.3255 14.06 48.1721 13.84 49.1055 13.84C50.0521 13.84 50.8988 14.06 51.6455 14.5C52.4055 14.9267 53.0055 15.5333 53.4455 16.32C53.8988 17.0933 54.1255 18 54.1255 19.04C54.1255 20.08 53.8988 20.9933 53.4455 21.78C53.0055 22.5533 52.4055 23.16 51.6455 23.6C50.8855 24.0267 50.0321 24.24 49.0855 24.24ZM49.0855 22.42C49.5921 22.42 50.0588 22.2933 50.4855 22.04C50.9255 21.7867 51.2788 21.4133 51.5455 20.92C51.8121 20.4133 51.9455 19.7867 51.9455 19.04C51.9455 18.2933 51.8121 17.6733 51.5455 17.18C51.2921 16.6733 50.9455 16.2933 50.5055 16.04C50.0788 15.7867 49.6121 15.66 49.1055 15.66C48.5988 15.66 48.1255 15.7867 47.6855 16.04C47.2588 16.2933 46.9121 16.6733 46.6455 17.18C46.3788 17.6733 46.2455 18.2933 46.2455 19.04C46.2455 19.7867 46.3788 20.4133 46.6455 20.92C46.9121 21.4133 47.2588 21.7867 47.6855 22.04C48.1121 22.2933 48.5788 22.42 49.0855 22.42ZM56.4981 24V10H58.6181V16H65.3981V10H67.5181V24H65.3981V17.74H58.6181V24H56.4981Z" fill="white"/>
<path d="M73.4238 22.5938C73.4238 22.1445 73.5671 21.7604 73.8535 21.4414C74.1465 21.1224 74.5664 20.9629 75.1133 20.9629C75.6471 20.9629 76.0638 21.1224 76.3633 21.4414C76.6628 21.7539 76.8125 22.138 76.8125 22.5938C76.8125 23.0495 76.6595 23.4303 76.3535 23.7363C76.054 24.0423 75.6406 24.1953 75.1133 24.1953C74.5794 24.1953 74.1628 24.0423 73.8633 23.7363C73.5703 23.4238 73.4238 23.043 73.4238 22.5938ZM82.2129 18.6387C82.2129 17.8379 82.3073 17.1087 82.4961 16.4512C82.6914 15.7871 82.9714 15.2174 83.3359 14.7422C83.694 14.2669 84.1302 13.8991 84.6445 13.6387C85.1654 13.3717 85.7513 13.2383 86.4023 13.2383C86.9883 13.2383 87.4993 13.3424 87.9355 13.5508C88.3783 13.7526 88.7689 14.0423 89.1074 14.4199V9H91.4414V24H89.3223L89.2148 22.8965C88.8763 23.3132 88.4727 23.6354 88.0039 23.8633C87.5352 24.0846 86.9948 24.1953 86.3828 24.1953C85.7383 24.1953 85.1589 24.0618 84.6445 23.7949C84.1302 23.5215 83.694 23.1439 83.3359 22.6621C82.9779 22.1868 82.7012 21.6237 82.5059 20.9727C82.3105 20.3151 82.2129 19.6055 82.2129 18.8438V18.6387ZM84.5469 18.8438C84.5469 19.3125 84.5924 19.7552 84.6836 20.1719C84.7747 20.5885 84.918 20.9499 85.1133 21.2559C85.3086 21.5749 85.5592 21.8255 85.8652 22.0078C86.1712 22.1836 86.5391 22.2715 86.9688 22.2715C87.4961 22.2715 87.9323 22.1576 88.2773 21.9297C88.6224 21.6953 88.8991 21.3796 89.1074 20.9824V16.4414C88.8991 16.0508 88.6224 15.7415 88.2773 15.5137C87.9388 15.2793 87.5091 15.1621 86.9883 15.1621C86.5521 15.1621 86.1777 15.2533 85.8652 15.4355C85.5592 15.6178 85.3118 15.8685 85.123 16.1875C84.9212 16.5065 84.7747 16.8776 84.6836 17.3008C84.5924 17.7174 84.5469 18.1634 84.5469 18.6387V18.8438ZM99.4688 24.1953C98.6875 24.1953 97.9714 24.0651 97.3203 23.8047C96.6758 23.5443 96.1224 23.1829 95.6602 22.7207C95.1979 22.265 94.8398 21.7279 94.5859 21.1094C94.3385 20.4844 94.2148 19.8105 94.2148 19.0879V18.6875C94.2148 17.8607 94.3451 17.112 94.6055 16.4414C94.8659 15.7708 95.224 15.1979 95.6797 14.7227C96.1354 14.2474 96.6628 13.8828 97.2617 13.6289C97.8672 13.3685 98.5117 13.2383 99.1953 13.2383C99.957 13.2383 100.631 13.3685 101.217 13.6289C101.803 13.8828 102.294 14.2376 102.691 14.6934C103.089 15.1556 103.388 15.7057 103.59 16.3438C103.792 16.9818 103.893 17.6784 103.893 18.4336V19.4395H96.5684V19.4883C96.64 19.9505 96.7507 20.3379 96.9004 20.6504C97.0501 20.9629 97.2552 21.2428 97.5156 21.4902C97.776 21.7507 98.082 21.9525 98.4336 22.0957C98.7917 22.2389 99.1823 22.3105 99.6055 22.3105C100.185 22.3105 100.725 22.1999 101.227 21.9785C101.728 21.7507 102.141 21.4284 102.467 21.0117L103.717 22.2227C103.365 22.7305 102.825 23.1862 102.096 23.5898C101.373 23.9935 100.497 24.1953 99.4688 24.1953ZM99.1855 15.1328C98.8535 15.1328 98.5443 15.1947 98.2578 15.3184C97.9779 15.4355 97.7272 15.6048 97.5059 15.8262C97.2845 16.054 97.099 16.3275 96.9492 16.6465C96.7995 16.9655 96.6888 17.3268 96.6172 17.7305H101.588V17.5742C101.588 17.2682 101.533 16.9655 101.422 16.666C101.311 16.36 101.155 16.0931 100.953 15.8652C100.758 15.6439 100.51 15.4681 100.211 15.3379C99.918 15.2012 99.5762 15.1328 99.1855 15.1328ZM110.006 24L105.846 13.4336H108.268L110.885 21.0996L111.041 21.8027L111.197 21.0996L113.785 13.4336H116.207L112.066 24H110.006Z" fill="#2DD4BF"/>
</svg>
